{
  "accessors": [
    {
      "bufferView": 2,
      "componentType": 5126,
      "count": 65532,
      "max": [
        8758.744140625,
        24141.39453125,
        9376.505859375
      ],
      "min": [
        1437.2763671875,
        6.69921875,
        16.984375
      ],
      "type": "VEC3"
    },
    {
      "bufferView": 2,
      "byteOffset": 786384,
      "componentType": 5126,
      "count": 65532,
      "max": [
        0.99999982118606567,
        0.99999970197677612,
        0.99999409914016724
      ],
      "min": [
        -0.99999892711639404,
        -0.99896776676177979,
        -0.99958193302154541
      ],
      "type": "VEC3"
    },
    {
      "bufferView": 3,
      "componentType": 5126,
      "count": 65532,
      "max": [
        0.99977803230285645,
        0.99999344348907471,
        0.98525702953338623,
        1
      ],
      "min": [
        -0.99999010562896729,
        -0.99962711334228516,
        -0.99997818470001221,
        -1
      ],
      "type": "VEC4"
    },
    {
      "bufferView": 1,
      "componentType": 5126,
      "count": 65532,
      "max": [
        0.96709102392196655,
        0.9652940034866333
      ],
      "min": [
        0.0039149997755885124,
        0.0039110002107918262
      ],
      "type": "VEC2"
    },
    {
      "bufferView": 0,
      "componentType": 5125,
      "count": 361395,
      "max": [
        65531
      ],
      "min": [
        0
      ],
      "type": "SCALAR"
    },
    {
      "bufferView": 2,
      "byteOffset": 1572768,
      "componentType": 5126,
      "count": 65532,
      "max": [
        6166.833984375,
        19330.01171875,
        8735.4619140625
      ],
      "min": [
        1085.197265625,
        970.173828125,
        496.62109375
      ],
      "type": "VEC3"
    },
    {
      "bufferView": 2,
      "byteOffset": 2359152,
      "componentType": 5126,
      "count": 65532,
      "max": [
        0.99998807907104492,
        0.99984776973724365,
        0.99999958276748657
      ],
      "min": [
        -0.99997764825820923,
        -0.99912077188491821,
        -0.99999690055847168
      ],
      "type": "VEC3"
    },
    {
      "bufferView": 3,
      "byteOffset": 1048512,
      "componentType": 5126,
      "count": 65532,
      "max": [
        0.99991494417190552,
        0.99999815225601196,
        0.97772955894470215,
        1
      ],
      "min": [
        -0.99996131658554077,
        -0.99962711334228516,
        -0.99998241662979126,
        -1
      ],
      "type": "VEC4"
    },
    {
      "bufferView": 1,
      "byteOffset": 524256,
      "componentType": 5126,
      "count": 65532,
      "max": [
        0.9980430006980896,
        0.99144601821899414
      ],
      "min": [
        0.0039149997755885124,
        0.011854000389575958
      ],
      "type": "VEC2"
    },
    {
      "bufferView": 0,
      "byteOffset": 1445580,
      "componentType": 5125,
      "count": 359361,
      "max": [
        65531
      ],
      "min": [
        0
      ],
      "type": "SCALAR"
    },
    {
      "bufferView": 2,
      "byteOffset": 3145536,
      "componentType": 5126,
      "count": 65532,
      "max": [
        6188.744140625,
        24226.64453125,
        6199.11279296875
      ],
      "min": [
        0,
        0,
        0
      ],
      "type": "VEC3"
    },
    {
      "bufferView": 2,
      "byteOffset": 3931920,
      "componentType": 5126,
      "count": 65532,
      "max": [
        0.99997091293334961,
        0.99999755620956421,
        0.99999481439590454
      ],
      "min": [
        -0.99999850988388062,
        -0.99988377094268799,
        -0.99999690055847168
      ],
      "type": "VEC3"
    },
    {
      "bufferView": 3,
      "byteOffset": 2097024,
      "componentType": 5126,
      "count": 65532,
      "max": [
        0.99819648265838623,
        0.99999910593032837,
        0.99974721670150757,
        1
      ],
      "min": [
        -0.99976301193237305,
        -0.99804574251174927,
        -0.99999856948852539,
        -1
      ],
      "type": "VEC4"
    },
    {
      "bufferView": 1,
      "byteOffset": 1048512,
      "componentType": 5126,
      "count": 65532,
      "max": [
        0.99151402711868286,
        0.99804502725601196
      ],
      "min": [
        0.0039149997755885124,
        0.0039110002107918262
      ],
      "type": "VEC2"
    },
    {
      "bufferView": 0,
      "byteOffset": 2883024,
      "componentType": 5125,
      "count": 359859,
      "max": [
        65531
      ],
      "min": [
        0
      ],
      "type": "SCALAR"
    },
    {
      "bufferView": 2,
      "byteOffset": 4718304,
      "componentType": 5126,
      "count": 27064,
      "max": [
        6187.2392578125,
        24220.962890625,
        6101.49072265625
      ],
      "min": [
        2275.5009765625,
        18067.365234375,
        890.783203125
      ],
      "type": "VEC3"
    },
    {
      "bufferView": 2,
      "byteOffset": 5043072,
      "componentType": 5126,
      "count": 27064,
      "max": [
        0.99976170063018799,
        0.98147565126419067,
        0.99999469518661499
      ],
      "min": [
        -0.99996650218963623,
        -0.99988377094268799,
        -0.99999874830245972
      ],
      "type": "VEC3"
    },
    {
      "bufferView": 3,
      "byteOffset": 3145536,
      "componentType": 5126,
      "count": 27064,
      "max": [
        0.9980924129486084,
        0.99993371963500977,
        0.99956834316253662,
        1
      ],
      "min": [
        -0.99995964765548706,
        -0.99345296621322632,
        -0.99890458583831787,
        -1
      ],
      "type": "VEC4"
    },
    {
      "bufferView": 1,
      "byteOffset": 1572768,
      "componentType": 5126,
      "count": 27064,
      "max": [
        0.99241501092910767,
        0.99205702543258667
      ],
      "min": [
        0.22106699645519257,
        0.0039110002107918262
      ],
      "type": "VEC2"
    },
    {
      "bufferView": 0,
      "byteOffset": 4322460,
      "componentType": 5125,
      "count": 147657,
      "max": [
        27063
      ],
      "min": [
        0
      ],
      "type": "SCALAR"
    }
  ],
  "asset": {
    "extras": {
      "author": "Geoffrey Marchal (https://sketchfab.com/geoffreymarchal)",
      "license": "CC-BY-NC-4.0 (http://creativecommons.org/licenses/by-nc/4.0/)",
      "source": "https://sketchfab.com/3d-models/standing-woman-3076da3924cd4ba19375845717bee31c",
      "title": "Standing woman"
    },
    "generator": "Sketchfab-5.6.2",
    "version": "2.0"
  },
  "bufferViews": [
    {
      "buffer": 0,
      "byteLength": 4913088,
      "byteOffset": 0,
      "name": "floatBufferViews",
      "target": 34963
    },
    {
      "buffer": 0,
      "byteLength": 1789280,
      "byteOffset": 4913088,
      "byteStride": 8,
      "name": "floatBufferViews",
      "target": 34962
    },
    {
      "buffer": 0,
      "byteLength": 5367840,
      "byteOffset": 6702368,
      "byteStride": 12,
      "name": "floatBufferViews",
      "target": 34962
    },
    {
      "buffer": 0,
      "byteLength": 3578560,
      "byteOffset": 12070208,
      "byteStride": 16,
      "name": "floatBufferViews",
      "target": 34962
    }
  ],
  "buffers": [
    {
      "byteLength": 15648768,
      "uri": "scene.bin"
    }
  ],
  "images": [
    {
      "uri": "textures/Material_0_baseColor.jpeg"
    },
    {
      "uri": "textures/Material_0_metallicRoughness.png"
    }
  ],
  "materials": [
    {
      "doubleSided": true,
      "name": "Material_0",
      "pbrMetallicRoughness": {
        "baseColorFactor": [
          1,
          1,
          1,
          1
        ],
        "baseColorTexture": {
          "index": 0,
          "texCoord": 0
        },
        "metallicFactor": 0,
        "metallicRoughnessTexture": {
          "index": 1,
          "texCoord": 0
        },
        "roughnessFactor": 1
      }
    }
  ],
  "meshes": [
    {
      "primitives": [
        {
          "attributes": {
            "NORMAL": 1,
            "POSITION": 0,
            "TANGENT": 2,
            "TEXCOORD_0": 3
          },
          "indices": 4,
          "material": 0,
          "mode": 4
        }
      ]
    },
    {
      "primitives": [
        {
          "attributes": {
            "NORMAL": 6,
            "POSITION": 5,
            "TANGENT": 7,
            "TEXCOORD_0": 8
          },
          "indices": 9,
          "material": 0,
          "mode": 4
        }
      ]
    },
    {
      "primitives": [
        {
          "attributes": {
            "NORMAL": 11,
            "POSITION": 10,
            "TANGENT": 12,
            "TEXCOORD_0": 13
          },
          "indices": 14,
          "material": 0,
          "mode": 4
        }
      ]
    },
    {
      "primitives": [
        {
          "attributes": {
            "NORMAL": 16,
            "POSITION": 15,
            "TANGENT": 17,
            "TEXCOORD_0": 18
          },
          "indices": 19,
          "material": 0,
          "mode": 4
        }
      ]
    }
  ],
  "nodes": [
    {
      "children": [
        1
      ],
      "name": "RootNode (gltf orientation matrix)",
      "rotation": [
        -0.70710678118654746,
        -0,
        -0,
        0.70710678118654757
      ]
    },
    {
      "children": [
        2
      ],
      "matrix": [
        0.4360826313495636,
        0.89990663528442383,
        0,
        0,
        0,
        0,
        1,
        0,
        0.89990663528442383,
        -0.4360826313495636,
        0,
        0,
        201.32615661621094,
        1146.17431640625,
        -1467.453125,
        1
      ],
      "name": "RootNode (model correction matrix)"
    },
    {
      "children": [
        3,
        4,
        5,
        6
      ],
      "matrix": [
        1,
        0,
        0,
        0,
        0,
        1,
        0,
        0,
        0,
        0,
        1,
        0,
        -9137.80078125,
        -13851.3935546875,
        -7893.7880859375,
        1
      ],
      "name": "spouse-1.obj.cleaner.gles"
    },
    {
      "mesh": 0,
      "name": ""
    },
    {
      "mesh": 1,
      "name": ""
    },
    {
      "mesh": 2,
      "name": ""
    },
    {
      "mesh": 3,
      "name": ""
    }
  ],
  "samplers": [
    {
      "magFilter": 9729,
      "minFilter": 9987,
      "wrapS": 10497,
      "wrapT": 10497
    },
    {
      "magFilter": 9728,
      "minFilter": 9728,
      "wrapS": 10497,
      "wrapT": 10497
    }
  ],
  "scene": 0,
  "scenes": [
    {
      "name": "OSG_Scene",
      "nodes": [
        0
      ]
    }
  ],
  "textures": [
    {
      "sampler": 0,
      "source": 0
    },
    {
      "sampler": 1,
      "source": 1
    }
  ]
}

