{
  "accessors": [
    {
      "bufferView": 2,
      "componentType": 5126,
      "count": 12032,
      "max": [
        0.30842700600624084,
        0.13844199478626251,
        0.30766800045967102
      ],
      "min": [
        -0.30833700299263,
        0.063128799200057983,
        -0.30849000811576843
      ],
      "type": "VEC3"
    },
    {
      "bufferView": 2,
      "byteOffset": 144384,
      "componentType": 5126,
      "count": 12032,
      "max": [
        0.99990910291671753,
        1,
        0.99994200468063354
      ],
      "min": [
        -0.9999997615814209,
        -1,
        -0.99997913837432861
      ],
      "type": "VEC3"
    },
    {
      "bufferView": 3,
      "componentType": 5126,
      "count": 12032,
      "max": [
        0.99998897314071655,
        1,
        0.99995601177215576,
        1
      ],
      "min": [
        -1,
        -1,
        -0.99999701976776123,
        -1
      ],
      "type": "VEC4"
    },
    {
      "bufferView": 1,
      "componentType": 5126,
      "count": 12032,
      "max": [
        0.95132899284362793,
        0.96657800674438477
      ],
      "min": [
        0,
        0
      ],
      "type": "VEC2"
    },
    {
      "bufferView": 0,
      "componentType": 5125,
      "count": 27150,
      "max": [
        12031
      ],
      "min": [
        0
      ],
      "type": "SCALAR"
    },
    {
      "bufferView": 2,
      "byteOffset": 288768,
      "componentType": 5126,
      "count": 65532,
      "max": [
        0.29564699530601501,
        0.06716039776802063,
        0.29443299770355225
      ],
      "min": [
        -0.29559800028800964,
        -0.13844199478626251,
        -0.29562199115753174
      ],
      "type": "VEC3"
    },
    {
      "bufferView": 2,
      "byteOffset": 1075152,
      "componentType": 5126,
      "count": 65532,
      "max": [
        0.99999713897705078,
        1,
        1
      ],
      "min": [
        -0.99999713897705078,
        -1,
        -1
      ],
      "type": "VEC3"
    },
    {
      "bufferView": 3,
      "byteOffset": 192512,
      "componentType": 5126,
      "count": 65532,
      "max": [
        1,
        1,
        1,
        1
      ],
      "min": [
        -1,
        -1,
        -1,
        1
      ],
      "type": "VEC4"
    },
    {
      "bufferView": 1,
      "byteOffset": 96256,
      "componentType": 5126,
      "count": 65532,
      "max": [
        1,
        1
      ],
      "min": [
        0,
        0
      ],
      "type": "VEC2"
    },
    {
      "bufferView": 0,
      "byteOffset": 108600,
      "componentType": 5125,
      "count": 102915,
      "max": [
        65531
      ],
      "min": [
        0
      ],
      "type": "SCALAR"
    },
    {
      "bufferView": 2,
      "byteOffset": 1861536,
      "componentType": 5126,
      "count": 1807,
      "max": [
        0.1724729984998703,
        0.06716039776802063,
        0.29329699277877808
      ],
      "min": [
        0.028808100149035454,
        -0.0013737500412389636,
        0.17099300026893616
      ],
      "type": "VEC3"
    },
    {
      "bufferView": 2,
      "byteOffset": 1883220,
      "componentType": 5126,
      "count": 1807,
      "max": [
        0.98388135433197021,
        1,
        0.98482787609100342
      ],
      "min": [
        -0.99288111925125122,
        -1,
        -0.98478066921234131
      ],
      "type": "VEC3"
    },
    {
      "bufferView": 3,
      "byteOffset": 1241024,
      "componentType": 5126,
      "count": 1807,
      "max": [
        0.98482799530029297,
        1,
        0.99288201332092285,
        1
      ],
      "min": [
        -0.96976000070571899,
        -1,
        -0.99288201332092285,
        1
      ],
      "type": "VEC4"
    },
    {
      "bufferView": 1,
      "byteOffset": 620512,
      "componentType": 5126,
      "count": 1807,
      "max": [
        1,
        1
      ],
      "min": [
        0,
        0
      ],
      "type": "VEC2"
    },
    {
      "bufferView": 0,
      "byteOffset": 520260,
      "componentType": 5125,
      "count": 2835,
      "max": [
        1806
      ],
      "min": [
        0
      ],
      "type": "SCALAR"
    },
    {
      "bufferView": 2,
      "byteOffset": 1904904,
      "componentType": 5126,
      "count": 65532,
      "max": [
        0.30087301135063171,
        0.06312890350818634,
        0.2996470034122467
      ],
      "min": [
        -0.30082398653030396,
        -0.13844199478626251,
        -0.30084800720214844
      ],
      "type": "VEC3"
    },
    {
      "bufferView": 2,
      "byteOffset": 2691288,
      "componentType": 5126,
      "count": 65532,
      "max": [
        0.99999701976776123,
        1,
        1
      ],
      "min": [
        -0.99999701976776123,
        -1,
        -1
      ],
      "type": "VEC3"
    },
    {
      "bufferView": 3,
      "byteOffset": 1269936,
      "componentType": 5126,
      "count": 65532,
      "max": [
        0.99999898672103882,
        1,
        0.99999701976776123,
        1
      ],
      "min": [
        -0.99999898672103882,
        -1,
        -1,
        1
      ],
      "type": "VEC4"
    },
    {
      "bufferView": 1,
      "byteOffset": 634968,
      "componentType": 5126,
      "count": 65532,
      "max": [
        0.96599698066711426,
        0.89659202098846436
      ],
      "min": [
        0,
        0
      ],
      "type": "VEC2"
    },
    {
      "bufferView": 0,
      "byteOffset": 531600,
      "componentType": 5125,
      "count": 101604,
      "max": [
        65531
      ],
      "min": [
        0
      ],
      "type": "SCALAR"
    },
    {
      "bufferView": 2,
      "byteOffset": 3477672,
      "componentType": 5126,
      "count": 25914,
      "max": [
        0.30087301135063171,
        0.0631290003657341,
        0.29848501086235046
      ],
      "min": [
        -0.30082398653030396,
        -0.0040614302270114422,
        -0.30084800720214844
      ],
      "type": "VEC3"
    },
    {
      "bufferView": 2,
      "byteOffset": 3788640,
      "componentType": 5126,
      "count": 25914,
      "max": [
        0.99999701976776123,
        1,
        0.99999946355819702
      ],
      "min": [
        -0.99999701976776123,
        -1,
        -0.9999542236328125
      ],
      "type": "VEC3"
    },
    {
      "bufferView": 3,
      "byteOffset": 2318448,
      "componentType": 5126,
      "count": 25914,
      "max": [
        0.99999898672103882,
        1,
        0.99999701976776123,
        1
      ],
      "min": [
        -0.99999898672103882,
        -1,
        -0.99999701976776123,
        1
      ],
      "type": "VEC4"
    },
    {
      "bufferView": 1,
      "byteOffset": 1159224,
      "componentType": 5126,
      "count": 25914,
      "max": [
        0.96599698066711426,
        0.89659202098846436
      ],
      "min": [
        0,
        0
      ],
      "type": "VEC2"
    },
    {
      "bufferView": 0,
      "byteOffset": 938016,
      "componentType": 5125,
      "count": 40146,
      "max": [
        25913
      ],
      "min": [
        0
      ],
      "type": "SCALAR"
    },
    {
      "bufferView": 2,
      "byteOffset": 4099608,
      "componentType": 5126,
      "count": 32,
      "max": [
        0.12742599844932556,
        -0.13698400557041168,
        0.12742599844932556
      ],
      "min": [
        -0.12742599844932556,
        -0.13698400557041168,
        -0.12742599844932556
      ],
      "type": "VEC3"
    },
    {
      "bufferView": 2,
      "byteOffset": 4099992,
      "componentType": 5126,
      "count": 32,
      "max": [
        0,
        1,
        -1.6292099758175027e-07
      ],
      "min": [
        0,
        1,
        -1.6292099758175027e-07
      ],
      "type": "VEC3"
    },
    {
      "bufferView": 3,
      "byteOffset": 2733072,
      "componentType": 5126,
      "count": 32,
      "max": [
        -0.98078501224517822,
        3.178480056931221e-08,
        0.19509300589561462,
        -1
      ],
      "min": [
        -0.98078501224517822,
        3.1784100684717487e-08,
        0.19508899748325348,
        -1
      ],
      "type": "VEC4"
    },
    {
      "bufferView": 1,
      "byteOffset": 1366536,
      "componentType": 5126,
      "count": 32,
      "max": [
        1,
        1
      ],
      "min": [
        0,
        0
      ],
      "type": "VEC2"
    },
    {
      "bufferView": 0,
      "byteOffset": 1098600,
      "componentType": 5125,
      "count": 90,
      "max": [
        31
      ],
      "min": [
        0
      ],
      "type": "SCALAR"
    },
    {
      "bufferView": 2,
      "byteOffset": 4100376,
      "componentType": 5126,
      "count": 32,
      "max": [
        1,
        -0.13844199478626251,
        1
      ],
      "min": [
        -1,
        -0.13844199478626251,
        -1
      ],
      "type": "VEC3"
    },
    {
      "bufferView": 2,
      "byteOffset": 4100760,
      "componentType": 5126,
      "count": 32,
      "max": [
        0,
        1,
        -1.6292099758175027e-07
      ],
      "min": [
        0,
        1,
        -1.6292099758175027e-07
      ],
      "type": "VEC3"
    },
    {
      "bufferView": 3,
      "byteOffset": 2733584,
      "componentType": 5126,
      "count": 32,
      "max": [
        -0.98078501224517822,
        3.178480056931221e-08,
        0.19509400427341461,
        -1
      ],
      "min": [
        -0.98078501224517822,
        3.1784100684717487e-08,
        0.19508899748325348,
        -1
      ],
      "type": "VEC4"
    },
    {
      "bufferView": 1,
      "byteOffset": 1366792,
      "componentType": 5126,
      "count": 32,
      "max": [
        1,
        1
      ],
      "min": [
        0,
        0
      ],
      "type": "VEC2"
    },
    {
      "bufferView": 0,
      "byteOffset": 1098960,
      "componentType": 5125,
      "count": 90,
      "max": [
        31
      ],
      "min": [
        0
      ],
      "type": "SCALAR"
    },
    {
      "bufferView": 2,
      "byteOffset": 4101144,
      "componentType": 5126,
      "count": 64,
      "max": [
        0.28478899598121643,
        -0.13676600158214569,
        0.28478899598121643
      ],
      "min": [
        -0.28478899598121643,
        -0.13676600158214569,
        -0.28478899598121643
      ],
      "type": "VEC3"
    },
    {
      "bufferView": 2,
      "byteOffset": 4101912,
      "componentType": 5126,
      "count": 64,
      "max": [
        3.3660700893278772e-09,
        1,
        -1.6292099758175027e-07
      ],
      "min": [
        -2.3760500234004667e-09,
        1,
        -1.6292099758175027e-07
      ],
      "type": "VEC3"
    },
    {
      "bufferView": 3,
      "byteOffset": 2734096,
      "componentType": 5126,
      "count": 64,
      "max": [
        0.99518501758575439,
        -1.3604600113126253e-08,
        -0.098017200827598572,
        1
      ],
      "min": [
        0.99518400430679321,
        -1.9319200461609398e-08,
        -0.098019301891326904,
        1
      ],
      "type": "VEC4"
    },
    {
      "bufferView": 1,
      "byteOffset": 1367048,
      "componentType": 5126,
      "count": 64,
      "max": [
        0.99989998340606689,
        0.99989998340606689
      ],
      "min": [
        9.998000314226374e-05,
        9.998000314226374e-05
      ],
      "type": "VEC2"
    },
    {
      "bufferView": 0,
      "byteOffset": 1099320,
      "componentType": 5125,
      "count": 192,
      "max": [
        63
      ],
      "min": [
        0
      ],
      "type": "SCALAR"
    }
  ],
  "asset": {
    "extras": {
      "author": "johnnydalvi (https://sketchfab.com/johnnydalvi)",
      "license": "CC-BY-4.0 (http://creativecommons.org/licenses/by/4.0/)",
      "source": "https://sketchfab.com/models/59ab1fd1db2c40299eccf9ff6fb62521",
      "title": "Coliseum"
    },
    "generator": "Sketchfab-3.19.2",
    "version": "2.0"
  },
  "bufferViews": [
    {
      "buffer": 0,
      "byteLength": 1100088,
      "byteOffset": 0,
      "name": "floatBufferViews",
      "target": 34963
    },
    {
      "buffer": 0,
      "byteLength": 1367560,
      "byteOffset": 1100088,
      "byteStride": 8,
      "name": "floatBufferViews",
      "target": 34962
    },
    {
      "buffer": 0,
      "byteLength": 4102680,
      "byteOffset": 2467648,
      "byteStride": 12,
      "name": "floatBufferViews",
      "target": 34962
    },
    {
      "buffer": 0,
      "byteLength": 2735120,
      "byteOffset": 6570328,
      "byteStride": 16,
      "name": "floatBufferViews",
      "target": 34962
    }
  ],
  "buffers": [
    {
      "byteLength": 9305448,
      "uri": "scene.bin"
    }
  ],
  "images": [
    {
      "uri": "textures/Material_001_normal.png"
    },
    {
      "uri": "textures/Material_001_metallicRoughness.png"
    },
    {
      "uri": "textures/Material_001_baseColor.jpeg"
    },
    {
      "uri": "textures/Material_002_normal.png"
    },
    {
      "uri": "textures/Material_002_metallicRoughness.png"
    },
    {
      "uri": "textures/Material_002_baseColor.jpeg"
    },
    {
      "uri": "textures/Material_normal.png"
    },
    {
      "uri": "textures/Material_metallicRoughness.png"
    },
    {
      "uri": "textures/Material_baseColor.jpeg"
    }
  ],
  "materials": [
    {
      "doubleSided": true,
      "emissiveFactor": [
        0,
        0,
        0
      ],
      "name": "Material",
      "normalTexture": {
        "index": 6,
        "scale": 1,
        "texCoord": 0
      },
      "pbrMetallicRoughness": {
        "baseColorFactor": [
          1,
          1,
          1,
          1
        ],
        "baseColorTexture": {
          "index": 8,
          "texCoord": 0
        },
        "metallicFactor": 1,
        "metallicRoughnessTexture": {
          "index": 7,
          "texCoord": 0
        },
        "roughnessFactor": 0.86756859760000005
      }
    },
    {
      "doubleSided": true,
      "emissiveFactor": [
        0,
        0,
        0
      ],
      "name": "Material_001",
      "normalTexture": {
        "index": 0,
        "scale": 1,
        "texCoord": 0
      },
      "pbrMetallicRoughness": {
        "baseColorFactor": [
          1,
          1,
          1,
          1
        ],
        "baseColorTexture": {
          "index": 2,
          "texCoord": 0
        },
        "metallicFactor": 1,
        "metallicRoughnessTexture": {
          "index": 1,
          "texCoord": 0
        },
        "roughnessFactor": 1
      }
    },
    {
      "doubleSided": true,
      "emissiveFactor": [
        0,
        0,
        0
      ],
      "name": "Material_002",
      "normalTexture": {
        "index": 3,
        "scale": 1,
        "texCoord": 0
      },
      "pbrMetallicRoughness": {
        "baseColorFactor": [
          1,
          1,
          1,
          1
        ],
        "baseColorTexture": {
          "index": 5,
          "texCoord": 0
        },
        "metallicFactor": 1,
        "metallicRoughnessTexture": {
          "index": 4,
          "texCoord": 0
        },
        "roughnessFactor": 1
      }
    }
  ],
  "meshes": [
    {
      "name": "defaultMaterial",
      "primitives": [
        {
          "attributes": {
            "NORMAL": 1,
            "POSITION": 0,
            "TANGENT": 2,
            "TEXCOORD_0": 3
          },
          "indices": 4,
          "material": 0,
          "mode": 4
        }
      ]
    },
    {
      "name": "defaultMaterial",
      "primitives": [
        {
          "attributes": {
            "NORMAL": 6,
            "POSITION": 5,
            "TANGENT": 7,
            "TEXCOORD_0": 8
          },
          "indices": 9,
          "material": 0,
          "mode": 4
        }
      ]
    },
    {
      "name": "defaultMaterial",
      "primitives": [
        {
          "attributes": {
            "NORMAL": 11,
            "POSITION": 10,
            "TANGENT": 12,
            "TEXCOORD_0": 13
          },
          "indices": 14,
          "material": 0,
          "mode": 4
        }
      ]
    },
    {
      "name": "defaultMaterial",
      "primitives": [
        {
          "attributes": {
            "NORMAL": 16,
            "POSITION": 15,
            "TANGENT": 17,
            "TEXCOORD_0": 18
          },
          "indices": 19,
          "material": 0,
          "mode": 4
        }
      ]
    },
    {
      "name": "defaultMaterial",
      "primitives": [
        {
          "attributes": {
            "NORMAL": 21,
            "POSITION": 20,
            "TANGENT": 22,
            "TEXCOORD_0": 23
          },
          "indices": 24,
          "material": 0,
          "mode": 4
        }
      ]
    },
    {
      "name": "defaultMaterial",
      "primitives": [
        {
          "attributes": {
            "NORMAL": 26,
            "POSITION": 25,
            "TANGENT": 27,
            "TEXCOORD_0": 28
          },
          "indices": 29,
          "material": 2,
          "mode": 4
        }
      ]
    },
    {
      "name": "defaultMaterial",
      "primitives": [
        {
          "attributes": {
            "NORMAL": 31,
            "POSITION": 30,
            "TANGENT": 32,
            "TEXCOORD_0": 33
          },
          "indices": 34,
          "material": 1,
          "mode": 4
        }
      ]
    },
    {
      "name": "defaultMaterial",
      "primitives": [
        {
          "attributes": {
            "NORMAL": 36,
            "POSITION": 35,
            "TANGENT": 37,
            "TEXCOORD_0": 38
          },
          "indices": 39,
          "material": 0,
          "mode": 4
        }
      ]
    }
  ],
  "nodes": [
    {
      "children": [
        1
      ],
      "name": "RootNode (gltf orientation matrix)",
      "rotation": [
        -0.70710678118654746,
        -0,
        -0,
        0.70710678118654757
      ]
    },
    {
      "children": [
        2
      ],
      "name": "RootNode (model correction matrix)"
    },
    {
      "children": [
        3,
        5,
        8,
        11,
        13,
        15
      ],
      "matrix": [
        1,
        0,
        0,
        0,
        0,
        -4.3711390063094768e-08,
        0.999999999999999,
        0,
        0,
        -0.999999999999999,
        -4.3711390063094768e-08,
        0,
        0,
        0,
        0,
        1
      ],
      "name": "Collada visual scene group"
    },
    {
      "children": [
        4
      ],
      "name": "Cube.001"
    },
    {
      "mesh": 0,
      "name": "defaultMaterial"
    },
    {
      "children": [
        6,
        7
      ],
      "name": "Cube.003"
    },
    {
      "mesh": 1,
      "name": "defaultMaterial"
    },
    {
      "mesh": 2,
      "name": "defaultMaterial"
    },
    {
      "children": [
        9,
        10
      ],
      "name": "Cube.004"
    },
    {
      "mesh": 3,
      "name": "defaultMaterial"
    },
    {
      "mesh": 4,
      "name": "defaultMaterial"
    },
    {
      "children": [
        12
      ],
      "name": "Circle"
    },
    {
      "mesh": 5,
      "name": "defaultMaterial"
    },
    {
      "children": [
        14
      ],
      "name": "Circle.001"
    },
    {
      "mesh": 6,
      "name": "defaultMaterial"
    },
    {
      "children": [
        16
      ],
      "name": "Circle.002"
    },
    {
      "mesh": 7,
      "name": "defaultMaterial"
    }
  ],
  "samplers": [
    {
      "magFilter": 9729,
      "minFilter": 9987,
      "wrapS": 10497,
      "wrapT": 10497
    },
    {
      "magFilter": 9728,
      "minFilter": 9728,
      "wrapS": 10497,
      "wrapT": 10497
    }
  ],
  "scene": 0,
  "scenes": [
    {
      "name": "OSG_Scene",
      "nodes": [
        0
      ]
    }
  ],
  "textures": [
    {
      "sampler": 0,
      "source": 0
    },
    {
      "sampler": 0,
      "source": 1
    },
    {
      "sampler": 0,
      "source": 2
    },
    {
      "sampler": 0,
      "source": 3
    },
    {
      "sampler": 0,
      "source": 4
    },
    {
      "sampler": 0,
      "source": 5
    },
    {
      "sampler": 0,
      "source": 6
    },
    {
      "sampler": 0,
      "source": 7
    },
    {
      "sampler": 1,
      "source": 8
    }
  ]
}

